<svg xmlns="http://www.w3.org/2000/svg" width="38.998" height="38.998" viewBox="0 0 38.998 38.998" xml:space="preserve"><path d="M35.497 15.111h-1.656a14.7 14.7 0 0 0-1.102-2.646l1.176-1.175a3.5 3.5 0 0 0 0-4.949l-1.258-1.258a3.51 3.51 0 0 0-4.953 0l-1.176 1.175a15 15 0 0 0-2.645-1.102V3.501c0-1.934-1.566-3.5-3.5-3.5h-1.778a3.5 3.5 0 0 0-3.5 3.5v1.655c-.923.282-1.807.653-2.645 1.102l-1.174-1.175a3.5 3.5 0 0 0-4.951 0L5.081 6.34a3.5 3.5 0 0 0 0 4.949l1.174 1.175c-.446.84-.818 1.723-1.102 2.646H3.5a3.5 3.5 0 0 0-3.5 3.5v1.778a3.5 3.5 0 0 0 3.5 3.5h1.654c.283.922.654 1.807 1.102 2.645l-1.175 1.176a3.5 3.5 0 0 0-.001 4.949l1.258 1.258a3.5 3.5 0 0 0 2.475 1.023h.001c.929 0 1.818-.369 2.475-1.023l1.176-1.176c.837.447 1.722.818 2.644 1.102v1.656a3.5 3.5 0 0 0 3.5 3.5h1.778a3.5 3.5 0 0 0 3.5-3.5v-1.656a15 15 0 0 0 2.645-1.102l1.177 1.176a3.5 3.5 0 0 0 2.476 1.023c.93 0 1.817-.369 2.477-1.023l1.256-1.258a3.5 3.5 0 0 0 0-4.949l-1.176-1.174c.447-.84.818-1.725 1.102-2.646H35.5a3.5 3.5 0 0 0 3.5-3.5v-1.777a3.505 3.505 0 0 0-3.503-3.501M19.499 27.499c-4.41 0-8-3.588-8-8 0-4.411 3.59-8 8-8 4.412 0 8 3.589 8 8 0 4.412-3.588 8-8 8"/></svg>